# Blender v2.78 (sub 0) OBJ File: '7.blend'
# www.blender.org
mtllib Wall_Desk_Speakers_01.mtl
o Desk_Speakers_01_Cube
v -1.982200 0.000000 11.143522
v -3.504456 0.000000 6.380883
v 3.732968 0.000000 9.316814
v 2.210712 0.000000 4.554175
v 2.458978 2.800245 4.868187
v 2.648496 4.303066 5.461125
v 3.106032 4.925555 6.892604
v 3.563567 4.303066 8.324082
v 3.753085 2.800244 8.917021
v 3.563567 1.297424 8.324082
v 3.106032 0.674935 6.892604
v 2.648496 1.297424 5.461125
v 2.561532 7.628450 5.189043
v 2.721012 8.893085 5.688004
v 3.106032 9.416914 6.892604
v 3.491051 8.893085 8.097203
v 3.650532 7.628450 8.596165
v 3.491051 6.363816 8.097203
v 3.106032 5.839987 6.892604
v 2.721012 6.363816 5.688004
v 2.833454 2.800245 6.191001
v 2.900448 3.331482 6.400600
v 3.062183 3.551527 6.906619
v 3.223919 3.331482 7.412637
v 3.290913 2.800245 7.622237
v 3.223919 2.269008 7.412637
v 3.062183 2.048962 6.906619
v 2.900448 2.269008 6.400600
v 2.869706 7.628450 6.304421
v 2.926081 8.075490 6.480801
v 3.062183 8.260660 6.906619
v 3.198285 8.075490 7.332437
v 3.254660 7.628450 7.508816
v 3.198285 7.181411 7.332437
v 3.062183 6.996241 6.906619
v 2.926081 7.181411 6.480801
v 2.968347 2.800245 6.341671
v 3.018880 3.200960 6.499773
v 3.140879 3.366942 6.881466
v 3.262877 3.200960 7.263159
v 3.313410 2.800245 7.421260
v 3.262877 2.399529 7.263159
v 3.140879 2.233548 6.881466
v 3.018880 2.399529 6.499773
v 2.995692 7.628450 6.427225
v 3.038216 7.965655 6.560269
v 3.140879 8.105330 6.881466
v 3.243541 7.965655 7.202663
v 3.286066 7.628450 7.335707
v 3.243541 7.291245 7.202663
v 3.140879 7.151570 6.881466
v 3.038216 7.291245 6.560269
v 3.099191 2.800245 6.621271
v 3.122423 2.984470 6.693957
v 3.178511 3.060779 6.869438
v 3.234599 2.984470 7.044918
v 3.257831 2.800245 7.117605
v 3.234599 2.616019 7.044918
v 3.178511 2.539710 6.869438
v 3.122423 2.616019 6.693957
v 3.111763 7.628450 6.660604
v 3.131313 7.783478 6.721769
v 3.178511 7.847692 6.869438
v 3.225709 7.783478 7.017106
v 3.245260 7.628450 7.078271
v 3.225709 7.473423 7.017106
v 3.178511 7.409208 6.869438
v 3.131313 7.473423 6.721769
v 3.188307 2.800245 6.866307
v 3.188307 7.628451 6.866307
v 2.248653 4.422185 5.463869
v 2.044114 2.800245 4.823932
v 2.742455 5.094014 7.008812
v 3.236257 4.422185 8.553755
v 3.440797 2.800244 9.193691
v 3.236257 1.178305 8.553755
v 2.742455 0.506475 7.008812
v 2.248653 1.178305 5.463869
v 2.326918 8.993324 5.708732
v 2.154796 7.628450 5.170221
v 2.742455 9.558674 7.008812
v 3.157993 8.993324 8.308891
v 3.330114 7.628450 8.847403
v 3.157993 6.263577 8.308891
v 2.742455 5.698227 7.008812
v 2.326918 6.263577 5.708732
v 2.618716 4.422185 5.345588
v 2.414176 2.800245 4.705651
v 3.112518 5.094014 6.890531
v 3.606319 4.422185 8.435474
v 3.810859 2.800244 9.075411
v 3.606319 1.178305 8.435473
v 3.112517 0.506475 6.890531
v 2.618716 1.178305 5.345588
v 2.696980 8.993324 5.590451
v 2.524858 7.628450 5.051939
v 3.112518 9.558674 6.890531
v 3.528055 8.993324 8.190611
v 3.700176 7.628450 8.729122
v 3.528055 6.263577 8.190611
v 3.112517 5.698227 6.890531
v 2.696980 6.263577 5.590451
v 2.685159 4.303066 5.449407
v 2.495641 2.800245 4.856468
v 3.142695 4.925555 6.880885
v 3.600231 4.303066 8.312365
v 3.789748 2.800244 8.905302
v 3.600231 1.297424 8.312365
v 3.142695 0.674935 6.880885
v 2.685159 1.297424 5.449407
v 2.757675 8.893085 5.676286
v 2.598195 7.628450 5.177324
v 3.142695 9.416914 6.880885
v 3.527715 8.893085 8.085485
v 3.687195 7.628450 8.584446
v 3.527715 6.363816 8.085485
v 3.142695 5.839987 6.880885
v 2.757675 6.363816 5.676286
v 3.642982 1.178305 8.423755
v 3.847522 2.800244 9.063692
v 3.642983 4.422185 8.423756
v 2.561522 7.628450 5.040221
v 3.149182 5.094014 6.878812
v 2.733643 6.263577 5.578732
v 2.655379 4.422185 5.333869
v 2.450840 2.800245 4.693933
v 3.149181 5.698227 6.878812
v 3.564718 6.263577 8.178893
v 3.149181 0.506475 6.878812
v 2.655379 1.178305 5.333869
v 2.733643 8.993324 5.578732
v 3.149181 9.558674 6.878812
v 3.564718 8.993324 8.178893
v 3.736840 7.628450 8.717403
v -3.378777 0.393333 6.774094
v -2.107879 0.393333 10.750313
v -3.101144 0.393333 6.685355
v -1.830246 0.393333 10.661573
v -2.171295 10.000000 10.551908
v -1.982200 9.371812 11.143522
v -3.504456 9.371813 6.380883
v -3.315361 10.000000 6.972498
v 3.543873 10.000000 8.725199
v 3.732968 9.371812 9.316814
v 2.210712 9.371813 4.554175
v 2.399806 10.000000 5.145791
v -2.296974 9.568193 10.158696
v -2.107879 8.940004 10.750313
v -3.378777 8.940005 6.774094
v -3.189682 9.568193 7.365709
v -1.830246 8.940004 10.661573
v -2.019341 9.568193 10.069960
v -2.912049 9.568193 7.276971
v -3.101144 8.940005 6.685355
v -3.549548 0.000000 -7.251050
v -1.395157 0.000000 -11.763101
v 1.864914 0.000000 -4.665782
v 4.019304 0.000000 -9.177832
v 3.984990 2.800245 -8.779007
v 3.716773 4.303066 -8.217266
v 3.069241 4.925555 -6.861105
v 2.421708 4.303066 -5.504945
v 2.153491 2.800244 -4.943204
v 2.421708 1.297424 -5.504945
v 3.069241 0.674935 -6.861105
v 3.716773 1.297424 -8.217266
v 3.839850 7.628450 -8.475033
v 3.614143 8.893085 -8.002323
v 3.069241 9.416914 -6.861105
v 2.524337 8.893085 -5.719886
v 2.298631 7.628450 -5.247179
v 2.524337 6.363816 -5.719886
v 3.069241 5.839987 -6.861105
v 3.614143 6.363816 -8.002323
v 3.351410 2.800245 -7.558906
v 3.256598 3.331482 -7.360334
v 3.027699 3.551527 -6.880939
v 2.798801 3.331482 -6.401546
v 2.703988 2.800245 -6.202975
v 2.798801 2.269008 -6.401546
v 3.027699 2.048962 -6.880939
v 3.256598 2.269008 -7.360334
v 3.300104 7.628450 -7.451453
v 3.220319 8.075490 -7.284353
v 3.027699 8.260660 -6.880939
v 2.835079 8.075490 -6.477527
v 2.755294 7.628450 -6.310428
v 2.835079 7.181411 -6.477527
v 3.027699 6.996241 -6.880939
v 3.220319 7.181411 -7.284353
v 3.346431 2.800245 -7.356735
v 3.274913 3.200960 -7.206952
v 3.102254 3.366942 -6.845343
v 2.929594 3.200960 -6.483732
v 2.858076 2.800245 -6.333949
v 2.929594 2.399529 -6.483732
v 3.102254 2.233548 -6.845343
v 3.274913 2.399529 -7.206952
v 3.307731 7.628450 -7.275683
v 3.247548 7.965655 -7.149639
v 3.102254 8.105330 -6.845343
v 2.956960 7.965655 -6.541045
v 2.896777 7.628450 -6.415000
v 2.956960 7.291245 -6.541045
v 3.102254 7.151570 -6.845343
v 3.247548 7.291245 -7.149639
v 3.250165 2.800245 -7.063429
v 3.217285 2.984470 -6.994566
v 3.137906 3.060779 -6.828320
v 3.058527 2.984470 -6.662071
v 3.025647 2.800245 -6.593209
v 3.058527 2.616019 -6.662071
v 3.137906 2.539710 -6.828320
v 3.217285 2.616019 -6.994566
v 3.232372 7.628450 -7.026165
v 3.204704 7.783478 -6.968217
v 3.137906 7.847692 -6.828320
v 3.071108 7.783478 -6.688420
v 3.043440 7.628450 -6.630473
v 3.071108 7.473423 -6.688420
v 3.137906 7.409208 -6.828320
v 3.204704 7.473423 -6.968217
v 3.147186 2.800245 -6.823888
v 3.147186 7.628451 -6.823888
v 3.423652 4.422185 -8.489224
v 3.713129 2.800245 -9.095490
v 2.724793 5.094014 -7.025570
v 2.025935 4.422185 -5.561915
v 1.736459 2.800244 -4.955649
v 2.025935 1.178305 -5.561915
v 2.724793 0.506475 -7.025570
v 3.423652 1.178305 -8.489224
v 3.312888 8.993324 -8.257245
v 3.556485 7.628450 -8.767423
v 2.724793 9.558674 -7.025570
v 2.136700 8.993324 -5.793894
v 1.893103 7.628450 -5.283718
v 2.136700 6.263577 -5.793894
v 2.724793 5.698227 -7.025570
v 3.312888 6.263577 -8.257245
v 3.774243 4.422185 -8.321826
v 4.063720 2.800245 -8.928092
v 3.075385 5.094014 -6.858172
v 2.376526 4.422185 -5.394516
v 2.087050 2.800244 -4.788250
v 2.376526 1.178305 -5.394516
v 3.075385 0.506475 -6.858172
v 3.774243 1.178305 -8.321826
v 3.663478 8.993324 -8.089847
v 3.907075 7.628450 -8.600024
v 3.075385 9.558674 -6.858172
v 2.487291 8.993324 -5.626495
v 2.243694 7.628450 -5.116318
v 2.487291 6.263577 -5.626495
v 3.075385 5.698227 -6.858172
v 3.663478 6.263577 -8.089847
v 3.751507 4.303066 -8.200681
v 4.019724 2.800245 -8.762421
v 3.103975 4.925555 -6.844520
v 2.456442 4.303066 -5.488359
v 2.188225 2.800244 -4.926619
v 2.456442 1.297424 -5.488359
v 3.103974 0.674935 -6.844520
v 3.751507 1.297424 -8.200681
v 3.648877 8.893085 -7.985739
v 3.874584 7.628450 -8.458447
v 3.103975 9.416914 -6.844520
v 2.559072 8.893085 -5.703302
v 2.333365 7.628450 -5.230593
v 2.559072 6.363816 -5.703302
v 3.103974 5.839987 -6.844520
v 3.648877 6.363816 -7.985739
v 2.411261 1.178305 -5.377932
v 2.121784 2.800244 -4.771666
v 2.411261 4.422185 -5.377931
v 3.941810 7.628450 -8.583439
v 3.110120 5.094014 -6.841586
v 3.698213 6.263577 -8.073262
v 3.808978 4.422185 -8.305242
v 4.098454 2.800245 -8.911508
v 3.110119 5.698227 -6.841586
v 2.522025 6.263577 -5.609910
v 3.110119 0.506475 -6.841586
v 3.808978 1.178305 -8.305242
v 3.698213 8.993324 -8.073262
v 3.110119 9.558674 -6.841586
v 2.522025 8.993324 -5.609910
v 2.278429 7.628450 -5.099733
v -1.573027 0.393333 -11.390579
v -3.371678 0.393333 -7.623572
v -1.310002 0.393333 -11.264992
v -3.108653 0.393333 -7.497983
v -3.281929 10.000000 -7.811537
v -3.549548 9.371812 -7.251050
v -1.395157 9.371813 -11.763101
v -1.662775 10.000000 -11.202614
v 2.132533 10.000000 -5.226269
v 1.864914 9.371812 -4.665782
v 4.019304 9.371813 -9.177832
v 3.751686 10.000000 -8.617346
v -3.104060 9.568193 -8.184059
v -3.371678 8.940004 -7.623572
v -1.573027 8.940005 -11.390579
v -1.840646 9.568193 -10.830092
v -3.108653 8.940004 -7.497983
v -2.841034 9.568193 -8.058471
v -1.577620 9.568193 -10.704506
v -1.310002 8.940005 -11.264992
vn -0.3045 0.0000 -0.9525
vn 0.9525 0.0000 -0.3045
vn 0.0000 -1.0000 0.0000
vn -0.9525 -0.0000 0.3045
vn 0.0000 1.0000 0.0000
vn 0.3045 0.0000 0.9525
vn -0.2165 0.7031 -0.6773
vn 0.2165 0.7031 0.6774
vn 0.2165 -0.7031 0.6773
vn -0.2165 -0.7031 -0.6774
vn 0.4309 0.0000 -0.9024
vn 0.9024 0.0000 0.4309
vn -0.9024 0.0000 -0.4309
vn -0.4309 0.0000 0.9024
vn 0.3064 0.7031 -0.6417
vn -0.3064 0.7031 0.6417
vn -0.3064 -0.7031 0.6417
vn 0.3064 -0.7031 -0.6417
vn -0.1165 0.9239 -0.3645
vn 0.1165 -0.9239 0.3645
vn -0.2813 0.3827 -0.8800
vn 0.2813 -0.3827 0.8800
vn -0.2813 -0.3827 -0.8800
vn 0.2813 0.3827 0.8800
vn -0.1165 -0.9239 -0.3645
vn 0.1165 0.9239 0.3645
vn 0.9567 0.0404 -0.2882
vn 0.9465 0.0404 -0.3201
vn 0.9393 0.0167 -0.3426
vn 0.9393 -0.0167 -0.3426
vn 0.9465 -0.0404 -0.3201
vn 0.9658 0.0199 -0.2583
vn 0.9567 -0.0404 -0.2882
vn 0.9573 0.0480 -0.2851
vn 0.9639 -0.0167 -0.2657
vn 0.9452 0.0480 -0.3230
vn 0.9639 0.0167 -0.2657
vn 0.9658 -0.0199 -0.2583
vn 0.9573 -0.0480 -0.2851
vn 0.9452 -0.0480 -0.3230
vn 0.9366 -0.0199 -0.3497
vn 0.9366 0.0199 -0.3497
vn 0.1649 0.9239 -0.3453
vn -0.1649 -0.9239 0.3453
vn 0.3981 0.3827 -0.8337
vn -0.3981 -0.3827 0.8337
vn 0.3981 -0.3827 -0.8337
vn -0.3981 0.3827 0.8337
vn 0.1649 -0.9239 -0.3453
vn -0.1649 0.9239 0.3453
vn 0.8943 0.0404 0.4456
vn 0.9088 0.0404 0.4154
vn 0.9189 0.0167 0.3940
vn 0.9189 -0.0167 0.3940
vn 0.9088 -0.0404 0.4154
vn 0.8805 0.0199 0.4736
vn 0.8943 -0.0404 0.4456
vn 0.8926 0.0480 0.4482
vn 0.8841 -0.0167 0.4669
vn 0.9098 0.0480 0.4124
vn 0.8841 0.0167 0.4669
vn 0.8805 -0.0199 0.4736
vn 0.8926 -0.0480 0.4482
vn 0.9098 -0.0480 0.4124
vn 0.9219 -0.0199 0.3870
vn 0.9219 0.0199 0.3870
vn 0.9477 0.0335 -0.3175
vn 0.9466 0.0398 -0.3199
vn 0.9561 0.0335 -0.2910
vn 0.9567 0.0398 -0.2885
vn 0.9621 0.0139 -0.2724
vn 0.9621 -0.0139 -0.2724
vn 0.9638 0.0165 -0.2663
vn 0.9638 -0.0165 -0.2663
vn 0.9561 -0.0335 -0.2910
vn 0.9567 -0.0398 -0.2885
vn 0.9477 -0.0335 -0.3175
vn 0.9466 -0.0398 -0.3199
vn 0.9417 -0.0139 -0.3361
vn 0.9395 -0.0165 -0.3421
vn 0.9417 0.0139 -0.3361
vn 0.9395 0.0165 -0.3421
vn 0.8836 0.4610 -0.0820
vn 0.9799 0.1668 0.1097
vn 0.9658 0.1909 0.1752
vn 0.9799 -0.1668 0.1097
vn 0.9658 -0.1909 0.1752
vn 0.9080 -0.4028 -0.1151
vn 0.8836 -0.4610 -0.0820
vn 0.8064 -0.4028 -0.4329
vn 0.7674 -0.4610 -0.4457
vn 0.7346 -0.1668 -0.6577
vn 0.7346 0.1668 -0.6577
vn 0.6852 -0.1909 -0.7029
vn 0.6852 0.1909 -0.7029
vn 0.8064 0.4028 -0.4329
vn 0.7674 0.4610 -0.4457
vn 0.9080 0.4028 -0.1151
vn 0.8936 -0.0627 -0.4444
vn 0.8936 0.0627 -0.4444
vn 0.9273 0.1278 -0.3519
vn 0.9206 0.1513 -0.3600
vn 0.9595 0.1278 -0.2511
vn 0.9587 0.1513 -0.2407
vn 0.9823 0.0529 -0.1798
vn 0.9857 0.0627 -0.1562
vn 0.9823 -0.0529 -0.1798
vn 0.9857 -0.0627 -0.1562
vn 0.9595 -0.1278 -0.2511
vn 0.9587 -0.1513 -0.2407
vn 0.9273 -0.1278 -0.3519
vn 0.9206 -0.1513 -0.3600
vn 0.9045 -0.0529 -0.4233
vn 0.9045 0.0529 -0.4233
vn 0.9572 -0.0468 -0.2856
vn 0.9467 -0.0394 -0.3197
vn 0.9454 -0.0468 -0.3225
vn 0.9397 -0.0163 -0.3417
vn 0.9397 0.0163 -0.3417
vn 0.9370 -0.0194 -0.3487
vn 0.9370 0.0194 -0.3487
vn 0.9467 0.0394 -0.3197
vn 0.9454 0.0468 -0.3225
vn 0.9566 0.0394 -0.2886
vn 0.9572 0.0468 -0.2856
vn 0.9637 0.0163 -0.2666
vn 0.9656 0.0194 -0.2594
vn 0.9637 -0.0163 -0.2666
vn 0.9656 -0.0194 -0.2594
vn 0.9566 -0.0394 -0.2886
vn 0.9078 0.0335 0.4181
vn 0.9087 0.0398 0.4156
vn 0.8958 0.0335 0.4431
vn 0.8945 0.0398 0.4453
vn 0.8874 0.0139 0.4608
vn 0.8874 -0.0139 0.4608
vn 0.8844 0.0165 0.4664
vn 0.8844 -0.0165 0.4664
vn 0.8958 -0.0335 0.4431
vn 0.8945 -0.0398 0.4453
vn 0.9078 -0.0335 0.4181
vn 0.9087 -0.0398 0.4156
vn 0.9162 -0.0139 0.4004
vn 0.9187 -0.0165 0.3946
vn 0.9162 0.0139 0.4004
vn 0.9187 0.0165 0.3946
vn 0.6998 0.4610 0.5457
vn 0.6386 0.1668 0.7513
vn 0.5835 0.1909 0.7894
vn 0.6386 -0.1668 0.7513
vn 0.5835 -0.1909 0.7894
vn 0.7402 -0.4028 0.5383
vn 0.6998 -0.4610 0.5457
vn 0.8840 -0.4028 0.2372
vn 0.8643 -0.4610 0.2011
vn 0.9857 -0.1668 0.0243
vn 0.9857 0.1668 0.0243
vn 0.9807 -0.1909 -0.0426
vn 0.9807 0.1909 -0.0426
vn 0.8840 0.4028 0.2372
vn 0.8643 0.4610 0.2011
vn 0.7402 0.4028 0.5383
vn 0.9554 -0.0627 0.2885
vn 0.9554 0.0627 0.2885
vn 0.9165 0.1278 0.3790
vn 0.9172 0.1513 0.3685
vn 0.8709 0.1278 0.4745
vn 0.8632 0.1513 0.4816
vn 0.8387 0.0529 0.5421
vn 0.8250 0.0627 0.5616
vn 0.8387 -0.0529 0.5421
vn 0.8251 -0.0627 0.5616
vn 0.8709 -0.1278 0.4745
vn 0.8632 -0.1513 0.4816
vn 0.9165 -0.1278 0.3790
vn 0.9172 -0.1513 0.3685
vn 0.9488 -0.0529 0.3114
vn 0.9488 0.0529 0.3114
vn 0.8929 -0.0468 0.4478
vn 0.9086 -0.0394 0.4157
vn 0.9096 -0.0468 0.4128
vn 0.9186 -0.0163 0.3949
vn 0.9186 0.0163 0.3949
vn 0.9214 -0.0194 0.3880
vn 0.9214 0.0194 0.3880
vn 0.9086 0.0394 0.4157
vn 0.9096 0.0468 0.4128
vn 0.8945 0.0394 0.4452
vn 0.8929 0.0468 0.4478
vn 0.8846 0.0163 0.4661
vn 0.8811 0.0194 0.4726
vn 0.8846 -0.0163 0.4661
vn 0.8811 -0.0194 0.4726
vn 0.8946 -0.0394 0.4452
usemtl 795548
s off
f 2//1 141//1 145//1 4//1
f 4//2 145//2 146//2 143//2 144//2 3//2
f 147//3 150//3 153//3 152//3
f 139//4 142//4 150//4 147//4
f 2//3 4//3 3//3 1//3
f 1//4 140//4 148//4 136//4
f 136//1 148//1 151//1 138//1
f 141//4 2//4 135//4 149//4
f 146//5 142//5 139//5 143//5
f 2//4 1//4 136//4 135//4
f 135//5 136//5 138//5 137//5
f 149//6 135//6 137//6 154//6
f 142//7 146//7 145//7 141//7
f 143//8 139//8 140//8 144//8
f 150//4 142//4 141//4 149//4
f 139//4 147//4 148//4 140//4
f 149//9 154//9 153//9 150//9
f 151//10 148//10 147//10 152//10
f 3//6 144//6 140//6 1//6
f 156//11 295//11 299//11 158//11
f 158//12 299//12 300//12 297//12 298//12 157//12
f 301//3 304//3 307//3 306//3
f 293//13 296//13 304//13 301//13
f 156//3 158//3 157//3 155//3
f 155//13 294//13 302//13 290//13
f 290//11 302//11 305//11 292//11
f 295//13 156//13 289//13 303//13
f 300//5 296//5 293//5 297//5
f 156//13 155//13 290//13 289//13
f 289//5 290//5 292//5 291//5
f 303//14 289//14 291//14 308//14
f 296//15 300//15 299//15 295//15
f 297//16 293//16 294//16 298//16
f 304//13 296//13 295//13 303//13
f 293//13 301//13 302//13 294//13
f 303//17 308//17 307//17 304//17
f 305//18 302//18 301//18 306//18
f 157//14 298//14 294//14 155//14
usemtl 1A1A1A
f 11//19 10//19 108//19 109//19
f 92//20 93//20 129//20 119//20
f 10//21 9//21 107//21 108//21
f 91//22 92//22 119//22 120//22
f 9//23 8//23 106//23 107//23
f 90//24 91//24 120//24 121//24
f 8//25 7//25 105//25 106//25
f 13//24 20//24 118//24 112//24
f 89//26 90//26 121//26 123//26
f 7//20 6//20 103//20 105//20
f 85//25 86//25 102//25 101//25
f 78//23 72//23 88//23 94//23
f 72//21 71//21 87//21 88//21
f 86//23 80//23 96//23 102//23
f 80//21 79//21 95//21 96//21
f 71//19 73//19 89//19 87//19
f 79//19 81//19 97//19 95//19
f 73//26 74//26 90//26 89//26
f 81//26 82//26 98//26 97//26
f 74//24 75//24 91//24 90//24
f 82//24 83//24 99//24 98//24
f 75//22 76//22 92//22 91//22
f 83//22 84//22 100//22 99//22
f 76//20 77//20 93//20 92//20
f 84//20 85//20 101//20 100//20
f 77//25 78//25 94//25 93//25
f 102//23 96//23 122//23 124//23
f 20//26 19//26 117//26 118//26
f 87//19 89//19 123//19 125//19
f 6//22 5//22 104//22 103//22
f 101//25 102//25 124//25 127//25
f 19//19 18//19 116//19 117//19
f 110//27 109//27 129//27 130//27
f 109//28 108//28 119//28 129//28
f 108//29 107//29 120//29 119//29
f 107//30 106//30 121//30 120//30
f 106//31 105//31 123//31 121//31
f 112//32 118//32 124//32 122//32
f 105//33 103//33 125//33 123//33
f 118//34 117//34 127//34 124//34
f 103//35 104//35 126//35 125//35
f 117//36 116//36 128//36 127//36
f 104//37 110//37 130//37 126//37
f 111//38 112//38 122//38 131//38
f 113//39 111//39 131//39 132//39
f 114//40 113//40 132//40 133//40
f 115//41 114//41 133//41 134//41
f 116//42 115//42 134//42 128//42
f 93//25 94//25 130//25 129//25
f 12//26 11//26 109//26 110//26
f 94//23 88//23 126//23 130//23
f 5//24 12//24 110//24 104//24
f 96//21 95//21 131//21 122//21
f 14//22 13//22 112//22 111//22
f 95//19 97//19 132//19 131//19
f 15//20 14//20 111//20 113//20
f 97//26 98//26 133//26 132//26
f 16//25 15//25 113//25 114//25
f 98//24 99//24 134//24 133//24
f 17//23 16//23 114//23 115//23
f 99//22 100//22 128//22 134//22
f 18//21 17//21 115//21 116//21
f 100//20 101//20 127//20 128//20
f 88//21 87//21 125//21 126//21
f 138//4 151//4 152//4 153//4 154//4 137//4
f 165//43 164//43 262//43 263//43
f 246//44 247//44 283//44 273//44
f 164//45 163//45 261//45 262//45
f 245//46 246//46 273//46 274//46
f 163//47 162//47 260//47 261//47
f 244//48 245//48 274//48 275//48
f 162//49 161//49 259//49 260//49
f 167//48 174//48 272//48 266//48
f 243//50 244//50 275//50 277//50
f 161//44 160//44 257//44 259//44
f 239//49 240//49 256//49 255//49
f 232//47 226//47 242//47 248//47
f 226//45 225//45 241//45 242//45
f 240//47 234//47 250//47 256//47
f 234//45 233//45 249//45 250//45
f 225//43 227//43 243//43 241//43
f 233//43 235//43 251//43 249//43
f 227//50 228//50 244//50 243//50
f 235//50 236//50 252//50 251//50
f 228//48 229//48 245//48 244//48
f 236//48 237//48 253//48 252//48
f 229//46 230//46 246//46 245//46
f 237//46 238//46 254//46 253//46
f 230//44 231//44 247//44 246//44
f 238//44 239//44 255//44 254//44
f 231//49 232//49 248//49 247//49
f 256//47 250//47 276//47 278//47
f 174//50 173//50 271//50 272//50
f 241//43 243//43 277//43 279//43
f 160//46 159//46 258//46 257//46
f 255//49 256//49 278//49 281//49
f 173//43 172//43 270//43 271//43
f 264//51 263//51 283//51 284//51
f 263//52 262//52 273//52 283//52
f 262//53 261//53 274//53 273//53
f 261//54 260//54 275//54 274//54
f 260//55 259//55 277//55 275//55
f 266//56 272//56 278//56 276//56
f 259//57 257//57 279//57 277//57
f 272//58 271//58 281//58 278//58
f 257//59 258//59 280//59 279//59
f 271//60 270//60 282//60 281//60
f 258//61 264//61 284//61 280//61
f 265//62 266//62 276//62 285//62
f 267//63 265//63 285//63 286//63
f 268//64 267//64 286//64 287//64
f 269//65 268//65 287//65 288//65
f 270//66 269//66 288//66 282//66
f 247//49 248//49 284//49 283//49
f 166//50 165//50 263//50 264//50
f 248//47 242//47 280//47 284//47
f 159//48 166//48 264//48 258//48
f 250//45 249//45 285//45 276//45
f 168//46 167//46 266//46 265//46
f 249//43 251//43 286//43 285//43
f 169//44 168//44 265//44 267//44
f 251//50 252//50 287//50 286//50
f 170//49 169//49 267//49 268//49
f 252//48 253//48 288//48 287//48
f 171//47 170//47 268//47 269//47
f 253//46 254//46 282//46 288//46
f 172//45 171//45 269//45 270//45
f 254//44 255//44 281//44 282//44
f 242//45 241//45 279//45 280//45
f 292//13 305//13 306//13 307//13 308//13 291//13
usemtl 455A64
f 10//67 11//67 27//67 26//67
f 18//68 19//68 35//68 34//68
f 11//69 12//69 28//69 27//69
f 19//70 20//70 36//70 35//70
f 12//71 5//71 21//71 28//71
f 5//72 6//72 22//72 21//72
f 20//73 13//73 29//73 36//73
f 13//74 14//74 30//74 29//74
f 6//75 7//75 23//75 22//75
f 14//76 15//76 31//76 30//76
f 7//77 8//77 24//77 23//77
f 15//78 16//78 32//78 31//78
f 8//79 9//79 25//79 24//79
f 16//80 17//80 33//80 32//80
f 9//81 10//81 26//81 25//81
f 17//82 18//82 34//82 33//82
f 31//83 32//83 48//83 47//83
f 24//84 25//84 41//84 40//84
f 32//85 33//85 49//85 48//85
f 25//86 26//86 42//86 41//86
f 33//87 34//87 50//87 49//87
f 26//88 27//88 43//88 42//88
f 34//89 35//89 51//89 50//89
f 27//90 28//90 44//90 43//90
f 35//91 36//91 52//91 51//91
f 28//92 21//92 37//92 44//92
f 21//93 22//93 38//93 37//93
f 36//94 29//94 45//94 52//94
f 29//95 30//95 46//95 45//95
f 22//96 23//96 39//96 38//96
f 30//97 31//97 47//97 46//97
f 23//98 24//98 40//98 39//98
f 52//99 45//99 61//99 68//99
f 45//100 46//100 62//100 61//100
f 38//101 39//101 55//101 54//101
f 46//102 47//102 63//102 62//102
f 39//103 40//103 56//103 55//103
f 47//104 48//104 64//104 63//104
f 40//105 41//105 57//105 56//105
f 48//106 49//106 65//106 64//106
f 41//107 42//107 58//107 57//107
f 49//108 50//108 66//108 65//108
f 42//109 43//109 59//109 58//109
f 50//110 51//110 67//110 66//110
f 43//111 44//111 60//111 59//111
f 51//112 52//112 68//112 67//112
f 44//113 37//113 53//113 60//113
f 37//114 38//114 54//114 53//114
f 66//115 67//115 70//115
f 59//116 60//116 69//116
f 67//117 68//117 70//117
f 60//118 53//118 69//118
f 53//119 54//119 69//119
f 68//120 61//120 70//120
f 61//121 62//121 70//121
f 54//122 55//122 69//122
f 62//123 63//123 70//123
f 55//124 56//124 69//124
f 63//125 64//125 70//125
f 56//126 57//126 69//126
f 64//127 65//127 70//127
f 57//128 58//128 69//128
f 65//129 66//129 70//129
f 58//130 59//130 69//130
f 164//131 165//131 181//131 180//131
f 172//132 173//132 189//132 188//132
f 165//133 166//133 182//133 181//133
f 173//134 174//134 190//134 189//134
f 166//135 159//135 175//135 182//135
f 159//136 160//136 176//136 175//136
f 174//137 167//137 183//137 190//137
f 167//138 168//138 184//138 183//138
f 160//139 161//139 177//139 176//139
f 168//140 169//140 185//140 184//140
f 161//141 162//141 178//141 177//141
f 169//142 170//142 186//142 185//142
f 162//143 163//143 179//143 178//143
f 170//144 171//144 187//144 186//144
f 163//145 164//145 180//145 179//145
f 171//146 172//146 188//146 187//146
f 185//147 186//147 202//147 201//147
f 178//148 179//148 195//148 194//148
f 186//149 187//149 203//149 202//149
f 179//150 180//150 196//150 195//150
f 187//151 188//151 204//151 203//151
f 180//152 181//152 197//152 196//152
f 188//153 189//153 205//153 204//153
f 181//154 182//154 198//154 197//154
f 189//155 190//155 206//155 205//155
f 182//156 175//156 191//156 198//156
f 175//157 176//157 192//157 191//157
f 190//158 183//158 199//158 206//158
f 183//159 184//159 200//159 199//159
f 176//160 177//160 193//160 192//160
f 184//161 185//161 201//161 200//161
f 177//162 178//162 194//162 193//162
f 206//163 199//163 215//163 222//163
f 199//164 200//164 216//164 215//164
f 192//165 193//165 209//165 208//165
f 200//166 201//166 217//166 216//166
f 193//167 194//167 210//167 209//167
f 201//168 202//168 218//168 217//168
f 194//169 195//169 211//169 210//169
f 202//170 203//170 219//170 218//170
f 195//171 196//171 212//171 211//171
f 203//172 204//172 220//172 219//172
f 196//173 197//173 213//173 212//173
f 204//174 205//174 221//174 220//174
f 197//175 198//175 214//175 213//175
f 205//176 206//176 222//176 221//176
f 198//177 191//177 207//177 214//177
f 191//178 192//178 208//178 207//178
f 220//179 221//179 224//179
f 213//180 214//180 223//180
f 221//181 222//181 224//181
f 214//182 207//182 223//182
f 207//183 208//183 223//183
f 222//184 215//184 224//184
f 215//185 216//185 224//185
f 208//186 209//186 223//186
f 216//187 217//187 224//187
f 209//188 210//188 223//188
f 217//189 218//189 224//189
f 210//190 211//190 223//190
f 218//191 219//191 224//191
f 211//192 212//192 223//192
f 219//193 220//193 224//193
f 212//194 213//194 223//194
