# Blender v2.78 (sub 0) OBJ File: '17.blend'
# www.blender.org
mtllib Fly_01.mtl
o Circle.004_Circle.001
v -0.861744 1.916749 -2.322872
v -0.689223 1.797716 -2.294324
v -0.776918 1.932170 -2.549669
v -0.631268 1.830656 -2.520785
v -1.229314 0.949327 -2.560326
v -1.430909 1.003486 -2.594584
v -1.182841 0.984789 -2.789042
v -1.353318 1.031169 -2.822803
v -0.954553 0.096783 -2.723749
v -1.004810 0.044367 -2.731776
v -0.949245 0.103234 -2.804852
v -0.991757 0.058729 -2.813297
v -0.961984 1.994285 -1.771135
v -0.787196 1.875361 -1.763838
v -0.922461 1.984520 -2.010327
v -0.773975 1.883596 -1.999392
v -1.368428 1.015180 -1.830742
v -1.572846 1.069589 -1.831223
v -1.366910 1.025923 -2.066562
v -1.540698 1.072018 -2.071702
v -1.130317 0.144941 -1.953297
v -1.181180 0.093006 -1.945990
v -1.140742 0.142887 -2.034134
v -1.184084 0.098619 -2.029550
v -0.802936 1.989998 -1.212995
v -0.662585 1.892693 -1.337818
v -0.945907 1.968783 -1.407878
v -0.823298 1.886542 -1.510624
v -0.999059 0.968918 -0.997752
v -1.146590 0.999337 -0.849238
v -1.168310 0.963891 -1.162244
v -1.297103 0.989274 -1.039276
v -0.812080 0.125524 -1.285428
v -0.835085 0.068701 -1.245685
v -0.876870 0.116857 -1.334158
v -0.897649 0.068314 -1.301432
v 0.861744 1.916749 -2.322872
v 0.689223 1.797716 -2.294324
v 0.776918 1.932170 -2.549669
v 0.631268 1.830656 -2.520785
v 1.229314 0.949327 -2.560326
v 1.430909 1.003486 -2.594584
v 1.182841 0.984789 -2.789042
v 1.353318 1.031169 -2.822803
v 0.954553 0.096783 -2.723749
v 1.004810 0.044367 -2.731776
v 0.949245 0.103234 -2.804852
v 0.991757 0.058729 -2.813297
v 0.961984 1.994285 -1.771135
v 0.787196 1.875361 -1.763838
v 0.922461 1.984520 -2.010327
v 0.773975 1.883596 -1.999392
v 1.368428 1.015180 -1.830742
v 1.572846 1.069589 -1.831223
v 1.366910 1.025923 -2.066562
v 1.540698 1.072018 -2.071702
v 1.130317 0.144941 -1.953297
v 1.181180 0.093006 -1.945990
v 1.140742 0.142887 -2.034134
v 1.184084 0.098619 -2.029550
v 0.802936 1.989998 -1.212995
v 0.662585 1.892693 -1.337818
v 0.945907 1.968783 -1.407878
v 0.823298 1.886542 -1.510624
v 0.999059 0.968918 -0.997752
v 1.146590 0.999337 -0.849238
v 1.168310 0.963891 -1.162244
v 1.297103 0.989274 -1.039276
v 0.812080 0.125524 -1.285428
v 0.835085 0.068701 -1.245685
v 0.876870 0.116857 -1.334158
v 0.897649 0.068314 -1.301432
v 1.197344 3.790667 -0.647952
v 0.314186 3.840780 -0.366701
v 2.016865 3.692333 -1.072569
v 1.719838 4.186593 0.529132
v 0.944783 4.230500 0.775731
v 2.438876 4.100238 0.156336
v 2.101148 4.475534 1.388154
v 1.522762 4.417891 1.286767
v 2.423729 4.339340 0.913260
v 0.309564 3.117943 -2.647961
v 0.068036 3.219203 -2.294643
v 0.740934 3.160537 -2.573601
v 1.653574 4.118948 -1.062146
v 0.859669 4.255425 -0.600983
v 2.352305 3.912611 -1.637284
v 2.434994 4.692526 -0.126371
v 1.738216 4.812188 0.278141
v 3.047996 4.511370 -0.631208
v 3.005265 5.111117 0.556547
v 2.419068 5.061410 0.601655
v 3.208892 4.880010 0.053299
v 0.363430 3.124044 -2.692587
v 0.287780 3.209068 -2.507265
v 0.579476 3.142074 -2.709782
v 1.199922 3.732259 -0.629450
v 0.316763 3.782371 -0.348199
v 2.019443 3.633924 -1.054067
v 1.722416 4.128184 0.547634
v 0.947361 4.172091 0.794233
v 2.441453 4.041830 0.174838
v 2.103726 4.417126 1.406657
v 1.525340 4.359481 1.305269
v 2.426307 4.280931 0.931762
v 0.312142 3.059534 -2.629459
v 0.070614 3.160794 -2.276141
v 0.743512 3.102129 -2.555099
v 1.660308 4.064637 -1.034479
v 0.866404 4.201114 -0.573316
v 2.359040 3.858299 -1.609617
v 2.441728 4.638215 -0.098704
v 1.744950 4.757877 0.305807
v 3.054730 4.457058 -0.603542
v 3.012000 5.056806 0.584214
v 2.425803 5.007098 0.629322
v 3.215626 4.825698 0.080966
v 0.366760 3.097188 -2.678906
v 0.291110 3.182211 -2.493583
v 0.582806 3.115217 -2.696100
v -1.119585 3.824095 -0.633646
v -0.231943 3.848659 -0.363329
v -1.946782 3.749519 -1.048094
v -1.615867 4.234718 0.549729
v -0.836883 4.256204 0.786732
v -2.341644 4.169209 0.185855
v -1.978048 4.534387 1.413343
v -1.402861 4.460100 1.304832
v -2.310262 4.407640 0.942491
v -0.276343 3.126396 -2.644344
v -0.027650 3.220584 -2.294052
v -0.705353 3.181403 -2.564671
v -1.571234 4.165474 -1.042233
v -0.768089 4.278910 -0.590932
v -2.282674 3.979481 -1.608663
v -2.324169 4.761189 -0.096984
v -1.619287 4.860629 0.298873
v -2.948328 4.597881 -0.594182
v -2.873652 5.195935 0.592848
v -2.288621 5.129329 0.630724
v -3.090060 4.970888 0.092194
v -0.328491 3.134027 -2.688315
v -0.248137 3.216800 -2.503955
v -0.544122 3.158285 -2.702843
v -1.123618 3.765782 -0.615103
v -0.235977 3.790346 -0.344786
v -1.950815 3.691205 -1.029551
v -1.619900 4.176405 0.568272
v -0.840916 4.197891 0.805275
v -2.345678 4.110896 0.204398
v -1.982081 4.476073 1.431886
v -1.406894 4.401786 1.323375
v -2.314296 4.349326 0.961034
v -0.280376 3.068083 -2.625801
v -0.031683 3.162271 -2.275509
v -0.709386 3.123090 -2.546128
v -1.579190 4.111374 -1.014476
v -0.776046 4.224810 -0.563174
v -2.290630 3.925382 -1.580906
v -2.332125 4.707089 -0.069226
v -1.627244 4.806530 0.326630
v -2.956285 4.543782 -0.566424
v -2.881609 5.141836 0.620606
v -2.296577 5.075230 0.658481
v -3.098016 4.916788 0.119952
v -0.332425 3.107275 -2.674589
v -0.252071 3.190048 -2.490230
v -0.548056 3.131533 -2.689118
v -1.433335 2.217860 0.000000
v -1.013521 3.231381 0.000000
v 0.000000 3.651195 -0.000000
v 1.013521 3.231381 -0.000000
v 1.433335 2.217860 0.000000
v 1.013521 1.350056 0.000000
v 0.000000 1.097906 0.000000
v -1.013520 1.350056 0.000000
v -1.123125 2.217860 1.979900
v -0.794169 3.012029 1.979900
v 0.000000 3.340985 1.979900
v 0.794169 3.012029 1.979900
v 1.123125 2.217860 1.979900
v 0.794169 1.423691 1.979900
v 0.000000 1.219165 1.979900
v -0.794169 1.423691 1.979900
v -0.595037 2.217860 2.723230
v -0.420754 2.638614 2.723230
v 0.000000 2.812897 2.723230
v 0.420755 2.638614 2.723230
v 0.595037 2.217860 2.723230
v 0.420755 1.723081 2.723230
v 0.000000 1.622823 2.723230
v -0.420754 1.723081 2.723230
v -1.068600 2.217860 -0.772139
v -0.755614 2.973474 -0.772139
v 0.000000 3.286459 -0.772139
v 0.755614 2.973474 -0.772139
v 1.068600 2.217860 -0.772139
v 0.755614 1.462246 -0.772139
v 0.000000 1.308025 -0.772139
v -0.755614 1.462246 -0.772139
v -0.250668 2.217860 -0.854059
v -0.177249 2.395109 -0.854059
v 0.000000 2.468528 -0.854059
v 0.177249 2.395109 -0.854059
v 0.250668 2.217860 -0.854059
v 0.177249 2.040611 -0.854059
v 0.000000 1.967192 -0.854059
v -0.177249 2.040611 -0.854059
v -0.993244 2.217860 -0.901830
v -0.702329 2.920189 -0.901830
v 0.000000 3.211104 -0.901830
v 0.702330 2.920189 -0.901830
v 0.993244 2.217860 -0.901830
v 0.702330 1.515530 -0.901830
v 0.000000 1.224616 -0.901830
v -0.702329 1.515530 -0.901830
v -1.229869 2.217860 -1.811941
v -0.869648 3.087508 -1.811941
v 0.000000 3.447728 -1.811941
v 0.869649 3.087508 -1.811941
v 1.229869 2.217860 -1.811941
v 0.869649 1.348211 -1.811941
v 0.000000 0.987991 -1.811941
v -0.869648 1.348211 -1.811941
v -1.067186 2.217860 -2.878625
v -0.754614 2.972474 -2.878625
v 0.000000 3.285046 -2.878625
v 0.754615 2.972474 -2.878625
v 1.067186 2.217860 -2.878625
v 0.754615 1.463245 -2.878625
v 0.000000 1.150674 -2.878625
v -0.754614 1.463245 -2.878625
v -0.548235 2.217860 -2.980980
v -0.387660 2.605520 -2.980980
v 0.000000 2.766095 -2.980980
v 0.387661 2.605520 -2.980980
v 0.548235 2.217860 -2.980980
v 0.387661 1.830199 -2.980980
v 0.000000 1.669625 -2.980980
v -0.387660 1.830199 -2.980980
v -1.030883 2.217860 -3.144366
v -0.728944 2.946804 -3.144366
v 0.000000 3.248743 -3.144366
v 0.728944 2.946804 -3.144366
v 1.030883 2.217860 -3.144366
v 0.728944 1.488916 -3.144366
v 0.000000 1.186977 -3.144366
v -0.728944 1.488916 -3.144366
v -0.962872 2.217860 -4.020237
v -0.692948 2.910808 -3.799951
v 0.000000 3.180732 -4.020237
v 0.692948 2.910808 -3.799951
v 0.962872 2.217860 -4.020237
v 0.680853 1.430326 -4.020237
v 0.000000 1.148308 -4.020237
v -0.680853 1.430326 -4.020237
v -0.436290 2.217860 -4.240705
v -0.193583 2.359752 -4.262746
v 0.000000 2.665434 -4.214694
v 0.193584 2.359752 -4.262746
v 0.436291 2.217860 -4.240705
v 0.414742 1.843881 -4.267179
v 0.000000 1.672089 -4.267179
v -0.414741 1.843881 -4.267179
v 0.000000 2.217860 -4.267179
v 0.620469 2.836982 -4.081828
v 0.075787 3.062597 -4.081828
v 0.846084 2.292300 -4.081828
v 0.230654 2.405813 -4.275835
v 0.075787 2.650359 -4.237393
v 0.424819 2.292300 -4.258202
v -0.620469 2.836982 -4.081828
v -0.846084 2.292300 -4.081828
v -0.075786 3.062597 -4.081828
v -0.230653 2.405813 -4.275835
v -0.424819 2.292300 -4.258202
v -0.075786 2.650359 -4.237393
v 0.000000 2.217860 2.875428
vn 0.5204 0.8162 0.2510
vn 0.9468 0.2576 0.1931
vn -0.7908 0.5679 -0.2285
vn -0.2302 -0.1486 0.9617
vn 0.8208 -0.5617 0.1039
vn 0.2525 0.1339 -0.9583
vn 0.7230 -0.6908 -0.0068
vn 0.1945 0.0658 -0.9787
vn -0.8883 -0.3420 -0.3064
vn -0.1629 -0.2225 0.9612
vn 0.5591 0.8270 0.0594
vn 0.9662 0.2569 -0.0201
vn -0.8200 0.5572 -0.1310
vn -0.0406 -0.0439 0.9982
vn 0.8255 -0.5645 0.0031
vn 0.0631 0.0293 -0.9976
vn 0.7081 -0.7024 -0.0726
vn 0.0022 -0.0394 -0.9992
vn -0.9307 -0.3537 -0.0928
vn 0.0254 -0.1189 0.9926
vn 0.3202 0.8878 -0.3305
vn 0.6155 0.3642 -0.6990
vn -0.7277 0.4493 0.5183
vn 0.6928 0.0189 0.7209
vn 0.6407 -0.4644 -0.6114
vn -0.6750 -0.0308 -0.7372
vn 0.5236 -0.6197 -0.5846
vn -0.7092 -0.1060 -0.6970
vn -0.6596 -0.4637 0.5915
vn 0.7436 -0.0482 0.6669
vn -0.5204 0.8162 0.2510
vn -0.9468 0.2576 0.1931
vn 0.7908 0.5679 -0.2285
vn 0.2302 -0.1486 0.9617
vn -0.8208 -0.5617 0.1039
vn -0.2525 0.1339 -0.9583
vn -0.7230 -0.6908 -0.0068
vn -0.1945 0.0658 -0.9787
vn 0.8883 -0.3420 -0.3064
vn 0.1629 -0.2225 0.9612
vn -0.5591 0.8270 0.0594
vn -0.9662 0.2569 -0.0201
vn 0.8200 0.5572 -0.1310
vn 0.0406 -0.0439 0.9982
vn -0.8255 -0.5645 0.0031
vn -0.0631 0.0293 -0.9976
vn -0.7081 -0.7024 -0.0726
vn -0.0022 -0.0394 -0.9992
vn 0.9307 -0.3537 -0.0928
vn -0.0254 -0.1189 0.9926
vn -0.3202 0.8878 -0.3305
vn -0.6155 0.3642 -0.6990
vn 0.7277 0.4493 0.5183
vn -0.6928 0.0189 0.7209
vn -0.6407 -0.4644 -0.6114
vn 0.6750 -0.0308 -0.7372
vn -0.5236 -0.6197 -0.5846
vn 0.7092 -0.1060 -0.6970
vn 0.6596 -0.4637 0.5915
vn -0.7436 -0.0482 0.6669
vn -0.0266 0.0642 0.9976
vn -0.0266 -0.0642 0.9976
vn 0.0642 -0.0266 0.9976
vn 0.0266 0.0642 0.9976
vn -0.0642 0.0266 0.9976
vn -0.0642 -0.0266 0.9976
vn 0.0266 -0.0642 0.9976
vn 0.0642 0.0266 0.9976
vn -0.8983 -0.3721 0.2336
vn 0.3721 -0.8983 0.2336
vn 0.8983 0.3721 0.2336
vn -0.3721 0.8983 0.2336
vn -0.3721 -0.8983 0.2336
vn 0.8983 -0.3721 0.2336
vn 0.3721 0.8983 0.2336
vn -0.8983 0.3721 0.2336
vn 0.3789 0.9148 -0.1395
vn -0.9148 0.3789 -0.1395
vn -0.9148 -0.3789 -0.1395
vn 0.3789 -0.9148 -0.1395
vn 0.9148 0.3789 -0.1395
vn -0.3789 0.9148 -0.1395
vn -0.3789 -0.9148 -0.1395
vn 0.9148 -0.3789 -0.1395
vn -0.0799 -0.1929 -0.9780
vn 0.1929 -0.0799 -0.9780
vn 0.0799 0.1929 -0.9780
vn -0.1929 0.0799 -0.9780
vn -0.1929 -0.0799 -0.9780
vn 0.0799 -0.1929 -0.9780
vn 0.1929 0.0799 -0.9780
vn -0.0799 0.1929 -0.9780
vn 0.3179 0.1317 0.9390
vn -0.1317 0.3179 0.9390
vn -0.1317 -0.3179 0.9390
vn 0.3179 -0.1317 0.9390
vn 0.1317 0.3179 0.9390
vn -0.3179 0.1317 0.9390
vn -0.3179 -0.1317 0.9390
vn 0.1317 -0.3179 0.9390
vn -0.9320 -0.3589 -0.0498
vn 0.3824 -0.9231 0.0408
vn 0.9215 0.3817 -0.0716
vn -0.3817 0.9215 -0.0716
vn -0.3824 -0.9231 0.0408
vn 0.9320 -0.3589 -0.0498
vn 0.3817 0.9215 -0.0716
vn -0.9215 0.3817 -0.0716
vn 0.4654 -0.1016 -0.8792
vn -0.4654 -0.1016 -0.8792
vn 0.1739 -0.4199 -0.8907
vn -0.1739 -0.4199 -0.8907
vn 0.0000 -0.0000 -1.0000
vn 0.0604 0.0670 -0.9959
vn -0.0625 0.1162 -0.9913
vn -0.0605 -0.0514 -0.9968
vn -0.0604 0.0670 -0.9959
vn 0.0605 -0.0514 -0.9968
vn 0.0625 0.1162 -0.9913
vn -0.0420 0.9525 -0.3017
vn -0.1098 0.8857 -0.4512
vn -0.1109 0.8849 -0.4524
vn -0.1108 0.8849 -0.4524
vn 0.0420 -0.9525 0.3017
vn 0.1098 -0.8857 0.4512
vn 0.1023 -0.8908 0.4428
vn 0.1030 -0.8909 0.4423
vn -0.5025 0.3421 0.7940
vn 0.9498 -0.0556 -0.3077
vn 0.7793 -0.1577 -0.6065
vn -0.9311 -0.2505 -0.2651
vn -0.1931 0.2885 0.9378
vn -0.7562 0.2202 0.6162
vn -0.9918 -0.0033 0.1277
vn -0.0326 -0.4569 -0.8889
vn 0.8363 0.1988 0.5110
vn 0.8526 -0.1493 -0.5007
vn 0.5869 -0.3085 -0.7485
vn 0.9989 0.0458 0.0055
vn 0.0297 0.4566 0.8892
vn -0.9608 0.0216 0.2764
vn 0.9321 0.2494 0.2626
vn -0.6843 0.1926 0.7033
vn 0.9731 0.0032 -0.2305
vn -0.8346 -0.1995 -0.5134
vn -0.8853 0.1044 0.4531
vn 0.1903 -0.2888 -0.9383
vn 0.0658 0.9509 -0.3024
vn 0.1297 0.8822 -0.4526
vn 0.1307 0.8815 -0.4538
vn 0.1306 0.8815 -0.4538
vn -0.0658 -0.9509 0.3024
vn -0.1297 -0.8822 0.4526
vn -0.1224 -0.8876 0.4441
vn -0.1231 -0.8877 0.4436
vn 0.5219 0.3274 0.7877
vn -0.9548 -0.0281 -0.2960
vn -0.7909 -0.1351 -0.5968
vn 0.9201 -0.2772 -0.2766
vn 0.2130 0.2827 0.9353
vn 0.7697 0.1981 0.6068
vn 0.9928 -0.0320 0.1154
vn 0.0084 -0.4575 -0.8892
vn -0.8238 0.2227 0.5213
vn -0.8627 -0.1246 -0.4901
vn -0.6044 -0.2915 -0.7415
vn -0.9971 0.0746 0.0178
vn -0.0055 0.4571 0.8894
vn 0.9642 -0.0057 0.2652
vn -0.9212 0.2761 0.2741
vn 0.6982 0.1726 0.6948
vn -0.9753 0.0314 -0.2184
vn 0.8221 -0.2234 -0.5236
vn 0.8935 0.0788 0.4421
vn -0.2101 -0.2830 -0.9358
vn -0.2932 -0.0355 -0.9554
vn -0.3815 -0.1554 -0.9112
vn 0.4000 0.8017 -0.4442
vn -0.8030 0.4001 -0.4418
vn 0.1597 0.3141 -0.9359
vn 0.3261 0.1832 -0.9274
vn -0.2055 0.3455 -0.9156
vn 0.3815 -0.1554 -0.9112
vn 0.8030 0.4001 -0.4418
vn -0.0497 -0.2358 -0.9705
vn -0.3261 0.1832 -0.9274
vn -0.1597 0.3141 -0.9359
vn 0.2055 0.3455 -0.9156
vn 0.0497 -0.2358 -0.9705
vn -0.4000 0.8017 -0.4442
vn 0.2932 -0.0355 -0.9554
vn 0.3787 0.9143 0.1433
vn -0.9143 0.3787 0.1433
vn -0.9042 -0.4074 0.1285
vn 0.2445 -0.9677 0.0612
vn 0.9143 0.3787 0.1433
vn -0.3787 0.9143 0.1433
vn -0.2445 -0.9677 0.0612
vn 0.9042 -0.4074 0.1285
vn 0.2159 -0.8606 0.4612
vn 0.7724 0.3199 0.5487
vn -0.3199 0.7724 0.5487
vn -0.2159 -0.8606 0.4612
vn 0.7853 -0.3066 0.5379
vn 0.3199 0.7724 0.5487
vn -0.7724 0.3199 0.5487
vn -0.7853 -0.3066 0.5379
vn 0.3507 0.8468 -0.4000
vn -0.8468 0.3507 -0.4000
vn -0.8470 -0.3823 -0.3693
vn 0.2176 -0.9475 -0.2341
vn 0.8468 0.3507 -0.4000
vn -0.3507 0.8468 -0.4000
vn -0.2176 -0.9475 -0.2341
vn 0.8470 -0.3823 -0.3693
vn -0.0288 -0.1180 -0.9926
vn 0.0996 -0.0412 -0.9942
vn 0.0412 0.0996 -0.9942
vn -0.0996 0.0412 -0.9942
vn -0.0996 -0.0412 -0.9942
vn 0.0288 -0.1180 -0.9926
vn 0.0996 0.0412 -0.9942
vn -0.0412 0.0996 -0.9942
vn 0.2465 0.1021 0.9637
vn -0.1021 0.2465 0.9637
vn -0.0589 -0.2474 0.9671
vn 0.2469 -0.0870 0.9651
vn 0.1021 0.2465 0.9637
vn -0.2465 0.1021 0.9637
vn -0.2469 -0.0870 0.9651
vn 0.0589 -0.2474 0.9671
usemtl 455A64
s off
f 2//1 4//1 3//1 1//1
f 7//2 5//2 9//2 11//2
f 1//3 3//3 8//3 6//3
f 2//4 1//4 6//4 5//4
f 4//5 2//5 5//5 7//5
f 3//6 4//6 7//6 8//6
f 9//7 10//7 12//7 11//7
f 8//8 7//8 11//8 12//8
f 6//9 8//9 12//9 10//9
f 5//10 6//10 10//10 9//10
f 14//11 16//11 15//11 13//11
f 19//12 17//12 21//12 23//12
f 13//13 15//13 20//13 18//13
f 14//14 13//14 18//14 17//14
f 16//15 14//15 17//15 19//15
f 15//16 16//16 19//16 20//16
f 21//17 22//17 24//17 23//17
f 20//18 19//18 23//18 24//18
f 18//19 20//19 24//19 22//19
f 17//20 18//20 22//20 21//20
f 26//21 28//21 27//21 25//21
f 31//22 29//22 33//22 35//22
f 25//23 27//23 32//23 30//23
f 26//24 25//24 30//24 29//24
f 28//25 26//25 29//25 31//25
f 27//26 28//26 31//26 32//26
f 33//27 34//27 36//27 35//27
f 32//28 31//28 35//28 36//28
f 30//29 32//29 36//29 34//29
f 29//30 30//30 34//30 33//30
f 38//31 37//31 39//31 40//31
f 43//32 47//32 45//32 41//32
f 37//33 42//33 44//33 39//33
f 38//34 41//34 42//34 37//34
f 40//35 43//35 41//35 38//35
f 39//36 44//36 43//36 40//36
f 45//37 47//37 48//37 46//37
f 44//38 48//38 47//38 43//38
f 42//39 46//39 48//39 44//39
f 41//40 45//40 46//40 42//40
f 50//41 49//41 51//41 52//41
f 55//42 59//42 57//42 53//42
f 49//43 54//43 56//43 51//43
f 50//44 53//44 54//44 49//44
f 52//45 55//45 53//45 50//45
f 51//46 56//46 55//46 52//46
f 57//47 59//47 60//47 58//47
f 56//48 60//48 59//48 55//48
f 54//49 58//49 60//49 56//49
f 53//50 57//50 58//50 54//50
f 62//51 61//51 63//51 64//51
f 67//52 71//52 69//52 65//52
f 61//53 66//53 68//53 63//53
f 62//54 65//54 66//54 61//54
f 64//55 67//55 65//55 62//55
f 63//56 68//56 67//56 64//56
f 69//57 71//57 72//57 70//57
f 68//58 72//58 71//58 67//58
f 66//59 70//59 72//59 68//59
f 65//60 69//60 70//60 66//60
f 203//61 211//61 210//61 202//61
f 208//62 216//62 215//62 207//62
f 206//63 214//63 213//63 205//63
f 204//64 212//64 211//64 203//64
f 202//65 210//65 209//65 201//65
f 201//66 209//66 216//66 208//66
f 207//67 215//67 214//67 206//67
f 205//68 213//68 212//68 204//68
f 209//69 217//69 224//69 216//69
f 215//70 223//70 222//70 214//70
f 213//71 221//71 220//71 212//71
f 211//72 219//72 218//72 210//72
f 216//73 224//73 223//73 215//73
f 214//74 222//74 221//74 213//74
f 212//75 220//75 219//75 211//75
f 210//76 218//76 217//76 209//76
f 220//77 228//77 227//77 219//77
f 218//78 226//78 225//78 217//78
f 217//79 225//79 232//79 224//79
f 223//80 231//80 230//80 222//80
f 221//81 229//81 228//81 220//81
f 219//82 227//82 226//82 218//82
f 224//83 232//83 231//83 223//83
f 222//84 230//84 229//84 221//84
f 232//85 240//85 239//85 231//85
f 230//86 238//86 237//86 229//86
f 228//87 236//87 235//87 227//87
f 226//88 234//88 233//88 225//88
f 225//89 233//89 240//89 232//89
f 231//90 239//90 238//90 230//90
f 229//91 237//91 236//91 228//91
f 227//92 235//92 234//92 226//92
f 237//93 245//93 244//93 236//93
f 235//94 243//94 242//94 234//94
f 240//95 248//95 247//95 239//95
f 238//96 246//96 245//96 237//96
f 236//97 244//97 243//97 235//97
f 234//98 242//98 241//98 233//98
f 233//99 241//99 248//99 240//99
f 239//100 247//100 246//100 238//100
f 241//101 249//101 256//101 248//101
f 247//102 255//102 254//102 246//102
f 245//103 253//103 252//103 244//103
f 243//104 251//104 250//104 242//104
f 248//105 256//105 255//105 247//105
f 246//106 254//106 253//106 245//106
f 244//107 252//107 251//107 243//107
f 242//108 250//108 249//108 241//108
f 254//109 262//109 261//109 253//109
f 249//110 257//110 264//110 256//110
f 255//111 263//111 262//111 254//111
f 256//112 264//112 263//112 255//112
f 264//113 265//113 263//113
f 262//114 265//114 261//114
f 260//115 265//115 259//115
f 258//116 265//116 257//116
f 257//117 265//117 264//117
f 263//113 265//113 262//113
f 261//118 265//118 260//118
f 259//119 265//119 258//119
usemtl 80DEEA
f 73//120 74//120 77//120 76//120
f 75//120 73//120 76//120 78//120
f 78//120 76//120 79//120 81//120
f 76//120 77//120 80//120 79//120
f 74//120 73//120 82//120 83//120
f 73//120 75//120 84//120 82//120
f 85//121 86//121 89//121 88//121
f 87//121 85//121 88//121 90//121
f 90//121 88//121 91//121 93//121
f 88//121 89//121 92//121 91//121
f 86//122 85//122 94//122 95//122
f 85//123 87//123 96//123 94//123
f 97//124 100//124 101//124 98//124
f 99//124 102//124 100//124 97//124
f 102//124 105//124 103//124 100//124
f 100//124 103//124 104//124 101//124
f 98//124 107//124 106//124 97//124
f 97//124 106//124 108//124 99//124
f 109//125 112//125 113//125 110//125
f 111//125 114//125 112//125 109//125
f 114//125 117//125 115//125 112//125
f 112//125 115//125 116//125 113//125
f 110//126 119//126 118//126 109//126
f 109//127 118//127 120//127 111//127
f 89//128 113//128 116//128 92//128
f 78//129 102//129 99//129 75//129
f 75//130 99//130 108//130 84//130
f 94//131 118//131 119//131 95//131
f 80//132 104//132 103//132 79//132
f 86//133 110//133 113//133 89//133
f 83//134 107//134 98//134 74//134
f 96//135 120//135 118//135 94//135
f 79//136 103//136 105//136 81//136
f 90//137 114//137 111//137 87//137
f 87//138 111//138 120//138 96//138
f 81//139 105//139 102//139 78//139
f 92//140 116//140 115//140 91//140
f 95//141 119//141 110//141 86//141
f 91//142 115//142 117//142 93//142
f 77//143 101//143 104//143 80//143
f 93//144 117//144 114//144 90//144
f 82//145 106//145 107//145 83//145
f 74//146 98//146 101//146 77//146
f 84//147 108//147 106//147 82//147
f 121//148 124//148 125//148 122//148
f 123//148 126//148 124//148 121//148
f 126//148 129//148 127//148 124//148
f 124//148 127//148 128//148 125//148
f 122//148 131//148 130//148 121//148
f 121//148 130//148 132//148 123//148
f 133//149 136//149 137//149 134//149
f 135//149 138//149 136//149 133//149
f 138//149 141//149 139//149 136//149
f 136//149 139//149 140//149 137//149
f 134//150 143//150 142//150 133//150
f 133//151 142//151 144//151 135//151
f 145//152 146//152 149//152 148//152
f 147//152 145//152 148//152 150//152
f 150//152 148//152 151//152 153//152
f 148//152 149//152 152//152 151//152
f 146//152 145//152 154//152 155//152
f 145//152 147//152 156//152 154//152
f 157//153 158//153 161//153 160//153
f 159//153 157//153 160//153 162//153
f 162//153 160//153 163//153 165//153
f 160//153 161//153 164//153 163//153
f 158//154 157//154 166//154 167//154
f 157//155 159//155 168//155 166//155
f 137//156 140//156 164//156 161//156
f 126//157 123//157 147//157 150//157
f 123//158 132//158 156//158 147//158
f 142//159 143//159 167//159 166//159
f 128//160 127//160 151//160 152//160
f 134//161 137//161 161//161 158//161
f 131//162 122//162 146//162 155//162
f 144//163 142//163 166//163 168//163
f 127//164 129//164 153//164 151//164
f 138//165 135//165 159//165 162//165
f 135//166 144//166 168//166 159//166
f 129//167 126//167 150//167 153//167
f 140//168 139//168 163//168 164//168
f 143//169 134//169 158//169 167//169
f 139//170 141//170 165//170 163//170
f 125//171 128//171 152//171 149//171
f 141//172 138//172 162//172 165//172
f 130//173 131//173 155//173 154//173
f 122//174 125//174 149//174 146//174
f 132//175 130//175 154//175 156//175
usemtl F44336
f 259//176 270//176 269//176 260//176
f 249//177 273//177 276//177 257//177
f 252//178 266//178 267//178 251//178
f 250//179 272//179 273//179 249//179
f 266//180 269//180 270//180 267//180
f 268//181 271//181 269//181 266//181
f 251//182 267//182 270//182 259//182
f 261//183 271//183 268//183 253//183
f 253//184 268//184 266//184 252//184
f 260//185 269//185 271//185 261//185
f 272//186 275//186 276//186 273//186
f 274//187 277//187 275//187 272//187
f 259//188 277//188 274//188 251//188
f 257//189 276//189 275//189 258//189
f 251//190 274//190 272//190 250//190
f 258//191 275//191 277//191 259//191
usemtl 4CAF50
f 171//192 179//192 180//192 172//192
f 169//193 177//193 178//193 170//193
f 176//194 184//194 177//194 169//194
f 174//195 182//195 183//195 175//195
f 172//196 180//196 181//196 173//196
f 170//197 178//197 179//197 171//197
f 175//198 183//198 184//198 176//198
f 173//199 181//199 182//199 174//199
f 182//200 190//200 191//200 183//200
f 180//201 188//201 189//201 181//201
f 178//202 186//202 187//202 179//202
f 183//203 191//203 192//203 184//203
f 181//204 189//204 190//204 182//204
f 179//205 187//205 188//205 180//205
f 177//206 185//206 186//206 178//206
f 184//207 192//207 185//207 177//207
f 172//208 196//208 195//208 171//208
f 170//209 194//209 193//209 169//209
f 169//210 193//210 200//210 176//210
f 175//211 199//211 198//211 174//211
f 173//212 197//212 196//212 172//212
f 171//213 195//213 194//213 170//213
f 176//214 200//214 199//214 175//214
f 174//215 198//215 197//215 173//215
f 200//216 208//216 207//216 199//216
f 198//217 206//217 205//217 197//217
f 196//218 204//218 203//218 195//218
f 194//219 202//219 201//219 193//219
f 193//220 201//220 208//220 200//220
f 199//221 207//221 206//221 198//221
f 197//222 205//222 204//222 196//222
f 195//223 203//223 202//223 194//223
f 189//224 188//224 278//224
f 187//225 186//225 278//225
f 192//226 191//226 278//226
f 190//227 189//227 278//227
f 188//228 187//228 278//228
f 186//229 185//229 278//229
f 185//230 192//230 278//230
f 191//231 190//231 278//231
